# xmcd
#
# Track frame offsets:
#	150
#	11852
#	22950
#	34052
#	44777
#	58127
#	68777
#	80027
#	91650
#	102750
#	114525
#	125625
#	138377
#	147750
#	160427
#	170777
#	184050
#	195600
#	206775
#	220202
#	232427
#	243977
#	256202
#	266025
#
# Disc length: 3679 seconds
#
# Revision: 8
# Processed by: cddbd v1.5.2PL0 Copyright (c) Steve Scherf et al.
# Submitted via: dBpowerAMP V4.0
#
DISCID=710e5d18
DTITLE=Various Artist - Country USA - 1954
DYEAR=1954
DGENRE=Country
TTITLE0=Marty Robbins - That's All Right
TTITLE1=Justin Tubb and Goldie Hill - Sure Fire Kisses
TTITLE2=Hank Thompson - Honky-Tonk Girl
TTITLE3=Webb Pierce - More And More
TTITLE4=Hank Snow - I Don't Hurt Anymore
TTITLE5=Faron Young - If You Ain't Lovin' (You Ain't Livin')
TTITLE6=Tommy Collins - You Better Not Do That
TTITLE7=Carl Smith - Back Up Buddy
TTITLE8=Ray Price - I'll Be There (If You Ever Want Me)
TTITLE9=Eddy Arnold - I Really Don't Want To Know
TTITLE10=Jimmy and Johnny - If You Don't, Somebody Else Will
TTITLE11=Slim Whitman - Secret Love
TTITLE12=Elvis Presley - Blue Moon Of Kentucky
TTITLE13=Webb Pierce - Even Tho
TTITLE14=Ernest Tubb - Two Glasses, Joe
TTITLE15=Kitty Wells and Red Foley - One By One
TTITLE16=Carl Smith - Loose Talk
TTITLE17=Hank Snow - Let Me Go, Lover!
TTITLE18=Stuart Hamblen - This Ole House
TTITLE19=Tommy Collins - Whatcha Gonna Do Now
TTITLE20=Webb Pierce - Slowly
TTITLE21=Ray Price - Release Me
TTITLE22=Hank Thompson - The New Green Light
TTITLE23=Johnnie and Jack - Goodnight, Sweetheart, Goodnight
EXTD=
EXTT0=
EXTT1=
EXTT2=
EXTT3=
EXTT4=
EXTT5=
EXTT6=
EXTT7=
EXTT8=
EXTT9=
EXTT10=
EXTT11=
EXTT12=
EXTT13=
EXTT14=
EXTT15=
EXTT16=
EXTT17=
EXTT18=
EXTT19=
EXTT20=
EXTT21=
EXTT22=
EXTT23=
PLAYORDER=
